<?xml version="1.0" encoding="UTF-8" standalone="no"?>
<!-- Created with Inkscape (http://www.inkscape.org/) -->

<svg
   width="1000mm"
   height="1000mm"
   viewBox="0 0 1000 1000"
   version="1.1"
   id="svg194"
   inkscape:export-filename="./centauri.png"
   inkscape:export-xdpi="96"
   inkscape:export-ydpi="96"
   inkscape:version="1.2.2 (b0a8486541, 2022-12-01)"
   sodipodi:docname="centaurico.svg"
   xml:space="preserve"
   xmlns:inkscape="http://www.inkscape.org/namespaces/inkscape"
   xmlns:sodipodi="http://sodipodi.sourceforge.net/DTD/sodipodi-0.dtd"
   xmlns:xlink="http://www.w3.org/1999/xlink"
   xmlns="http://www.w3.org/2000/svg"
   xmlns:svg="http://www.w3.org/2000/svg"><sodipodi:namedview
     id="namedview196"
     pagecolor="#ffffff"
     bordercolor="#cccccc"
     borderopacity="1"
     inkscape:showpageshadow="0"
     inkscape:pageopacity="1"
     inkscape:pagecheckerboard="0"
     inkscape:deskcolor="#d1d1d1"
     inkscape:document-units="mm"
     showgrid="false"
     inkscape:zoom="0.11313709"
     inkscape:cx="1714.7339"
     inkscape:cy="2740.0388"
     inkscape:window-width="1080"
     inkscape:window-height="1891"
     inkscape:window-x="3286"
     inkscape:window-y="0"
     inkscape:window-maximized="1"
     inkscape:current-layer="layer1" /><defs
     id="defs191"><linearGradient
       inkscape:collect="always"
       id="linearGradient39326"><stop
         style="stop-color:#1489ff;stop-opacity:1;"
         offset="0"
         id="stop39322" /><stop
         style="stop-color:#00d6ff;stop-opacity:1;"
         offset="0.52739787"
         id="stop39324" /></linearGradient><inkscape:path-effect
       effect="dashed_stroke"
       id="path-effect36320"
       is_visible="true"
       lpeversion="1"
       numberdashes="3"
       holefactor="0.63"
       splitsegments="false"
       halfextreme="true"
       unifysegment="true"
       message="Add &lt;b&gt;&quot;Fill Between Many LPE&quot;&lt;/b&gt; to add fill." /><inkscape:path-effect
       effect="dashed_stroke"
       id="path-effect34862"
       is_visible="true"
       lpeversion="1"
       numberdashes="2"
       holefactor="0.32"
       splitsegments="false"
       halfextreme="true"
       unifysegment="true"
       message="Add &lt;b&gt;&quot;Fill Between Many LPE&quot;&lt;/b&gt; to add fill." /><linearGradient
       inkscape:collect="always"
       id="linearGradient34058"><stop
         style="stop-color:#000000;stop-opacity:1;"
         offset="0"
         id="stop34054" /><stop
         style="stop-color:#6f77e2;stop-opacity:0;"
         offset="1"
         id="stop34056" /></linearGradient><linearGradient
       id="linearGradient24128"
       inkscape:swatch="solid"><stop
         style="stop-color:#000000;stop-opacity:1;"
         offset="0"
         id="stop24126" /></linearGradient><inkscape:path-effect
       effect="dashed_stroke"
       id="path-effect14263"
       is_visible="true"
       lpeversion="1"
       numberdashes="3"
       holefactor="0"
       splitsegments="false"
       halfextreme="true"
       unifysegment="true"
       message="Add &lt;b&gt;&quot;Fill Between Many LPE&quot;&lt;/b&gt; to add fill." /><inkscape:path-effect
       effect="dashed_stroke"
       id="path-effect14261"
       is_visible="true"
       lpeversion="1"
       numberdashes="3"
       holefactor="0.35"
       splitsegments="false"
       halfextreme="true"
       unifysegment="true"
       message="Add &lt;b&gt;&quot;Fill Between Many LPE&quot;&lt;/b&gt; to add fill." /><inkscape:path-effect
       effect="dashed_stroke"
       id="path-effect14259"
       is_visible="true"
       lpeversion="1"
       numberdashes="5"
       holefactor="0.35"
       splitsegments="false"
       halfextreme="true"
       unifysegment="true"
       message="Add &lt;b&gt;&quot;Fill Between Many LPE&quot;&lt;/b&gt; to add fill." /><linearGradient
       inkscape:collect="always"
       xlink:href="#linearGradient34058"
       id="linearGradient34060"
       x1="283.28102"
       y1="505.23677"
       x2="715.40349"
       y2="505.23677"
       gradientUnits="userSpaceOnUse" /><linearGradient
       inkscape:collect="always"
       xlink:href="#linearGradient39326"
       id="linearGradient40156"
       x1="899.79834"
       y1="848.53516"
       x2="-82.585449"
       y2="-102.5078"
       gradientUnits="userSpaceOnUse" /></defs><g
     inkscape:label="Layer 1"
     inkscape:groupmode="layer"
     id="layer1"><g
       id="g34052"
       style="fill:url(#linearGradient34060);fill-opacity:1"
       transform="matrix(1.2484593,0,0,1.2612069,-123.36154,-133.34059)"><path
         id="path21754"
         style="color:#000000;opacity:1;fill:url(#linearGradient40156);fill-opacity:1;stroke:none;stroke-width:22;stroke-linecap:round;stroke-dasharray:none;stroke-dashoffset:0;stroke-opacity:0.365294;paint-order:stroke fill markers"
         d="m 428.56506,105.87416 a 20.154939,20.154939 0 0 0 -6.30143,0.22169 c -184.3445,35.8844 -323.452607,198.19349 -323.452607,392.5595 0,45.33971 7.571257,88.99393 21.525817,129.67581 a 20.154939,20.154939 0 0 0 25.60516,12.52533 20.154939,20.154939 0 0 0 12.52533,-25.60516 c -12.5364,-36.54747 -19.34611,-75.73869 -19.34611,-116.59598 0,-175.15044 125.11804,-320.73026 290.84375,-352.99034 a 20.154939,20.154939 0 0 0 15.93184,-23.63732 20.154939,20.154939 0 0 0 -17.33175,-16.15353 z m 141.48283,0 a 20.154939,20.154939 0 0 0 -17.33176,16.15353 20.154939,20.154939 0 0 0 15.93185,23.63732 c 165.72571,32.26008 290.84013,177.83992 290.84013,352.99034 0,40.85729 -6.80611,80.04851 -19.34249,116.59598 a 20.154939,20.154939 0 0 0 12.52533,25.60516 20.154939,20.154939 0 0 0 25.60516,-12.52533 c 13.95455,-40.6819 21.5222,-84.3361 21.5222,-129.67581 0,-194.36599 -139.10448,-356.6751 -323.44899,-392.5595 a 20.154939,20.154939 0 0 0 -6.30143,-0.22169 z M 347.90021,222.72077 a 20.154939,20.154939 0 0 0 -10.0428,2.82309 c -93.08924,55.28574 -155.45976,157.05599 -155.45976,273.11149 0,116.0555 62.37052,217.82936 155.45976,273.11511 a 20.154939,20.154939 0 0 0 27.62002,-7.03523 20.154939,20.154939 0 0 0 -7.03523,-27.62363 C 277.20326,688.86373 222.70734,600.28395 222.70734,498.65535 c 0,-101.6286 54.49592,-190.20426 135.73486,-238.45211 a 20.154939,20.154939 0 0 0 7.03523,-27.62364 20.154939,20.154939 0 0 0 -12.35325,-9.23664 20.154939,20.154939 0 0 0 -5.22397,-0.62219 z m 302.81253,0 a 20.154939,20.154939 0 0 0 -5.22397,0.62219 20.154939,20.154939 0 0 0 -12.35326,9.23664 20.154939,20.154939 0 0 0 7.03523,27.62364 c 81.23895,48.24785 135.73487,136.82351 135.73487,238.45211 0,101.62862 -54.49592,190.20838 -135.73487,238.45625 a 20.154939,20.154939 0 0 0 -7.03523,27.62363 20.154939,20.154939 0 0 0 27.62002,7.03523 C 753.84479,716.48471 816.2153,614.71087 816.2153,498.65535 c 0,-29.01386 -3.89968,-57.13317 -11.20139,-83.85845 -1.82541,-6.6813 -3.86189,-13.27656 -6.10505,-19.77553 -2.24313,-6.49898 -4.69058,-12.90208 -7.33599,-19.20297 -2.64543,-6.3009 -5.48871,-12.5004 -8.52093,-18.58749 -3.03222,-6.08712 -6.25525,-12.0607 -9.65884,-17.91829 -3.40357,-5.85759 -6.98715,-11.59747 -10.74663,-17.2098 -3.7595,-5.61233 -7.69522,-11.09982 -11.79514,-16.45119 -4.09994,-5.35139 -8.365,-10.56726 -12.78992,-15.64194 -13.27479,-15.22404 -27.9781,-29.16891 -43.89965,-41.61968 -5.30717,-4.15025 -10.75163,-8.13486 -16.322,-11.94553 -5.57035,-3.81067 -11.26614,-7.44527 -17.08423,-10.90062 a 20.154939,20.154939 0 0 0 -10.04279,-2.82309 z m -150.13399,51.86144 c -123.25795,0 -223.61168,100.35373 -223.61168,223.61167 0,123.25795 100.35373,223.61167 223.61168,223.61167 123.25793,0 223.61167,-100.35372 223.61167,-223.61167 0,-123.25794 -100.35374,-223.61167 -223.61167,-223.61167 z m 0,40.30968 c 101.47291,0 183.30199,81.82908 183.30199,183.30199 0,101.47291 -81.82908,183.30199 -183.30199,183.30199 -101.47291,0 -183.30199,-81.82908 -183.30199,-183.30199 0,-101.47291 81.82908,-183.30199 183.30199,-183.30199 z M 210.95818,728.35864 a 20.154939,20.154939 0 0 0 -11.45098,4.90203 20.154939,20.154939 0 0 0 -1.89652,28.43961 c 73.39716,83.89129 181.48492,136.91567 301.69424,136.91567 7.51309,0 14.97852,-0.20664 22.3914,-0.61547 14.82578,-0.81762 29.44362,-2.44322 43.8025,-4.83123 50.25605,-8.3581 97.38259,-26.07175 139.48864,-51.28214 6.01514,-3.60145 11.92753,-7.35658 17.73225,-11.25874 11.60948,-7.80427 22.78725,-16.19751 33.48891,-25.13955 16.05251,-13.41304 31.03168,-28.05892 44.79365,-43.78854 a 20.154939,20.154939 0 0 0 4.94233,-14.61151 20.154939,20.154939 0 0 0 -6.83885,-13.8281 20.154939,20.154939 0 0 0 -28.43961,1.90066 c -4.12766,4.71782 -8.37547,9.32473 -12.73979,13.82034 -8.72864,8.99118 -17.92323,17.52895 -27.54147,25.57312 -9.61822,8.04418 -19.66097,15.59392 -30.09274,22.61361 -5.21589,3.50985 -10.53047,6.88836 -15.93546,10.12754 -10.81002,6.47839 -21.9867,12.40492 -33.49615,17.74259 -34.52834,16.013 -72.03511,26.71803 -111.48932,31.06994 -13.1514,1.45064 -26.51968,2.19728 -40.06629,2.19728 -108.37274,0 -205.31552,-47.65925 -271.35811,-123.14442 a 20.154939,20.154939 0 0 0 -16.98863,-6.80269 z" /><path
         id="path48264"
         style="color:#000000;fill:none;fill-opacity:1;stroke:none;stroke-width:22;stroke-linecap:round;stroke-dasharray:none;stroke-dashoffset:536.8"
         d="m 428.56506,105.87416 a 20.154939,20.154939 0 0 0 -6.30143,0.22169 c -184.3445,35.8844 -323.452607,198.19349 -323.452607,392.5595 0,45.33971 7.571257,88.99393 21.525817,129.67581 a 20.154939,20.154939 0 0 0 25.60516,12.52533 20.154939,20.154939 0 0 0 12.52533,-25.60516 c -12.5364,-36.54747 -19.34611,-75.73869 -19.34611,-116.59598 0,-175.15044 125.11804,-320.73026 290.84375,-352.99034 a 20.154939,20.154939 0 0 0 15.93184,-23.63732 20.154939,20.154939 0 0 0 -17.33175,-16.15353 z m 141.48283,0 a 20.154939,20.154939 0 0 0 -17.33176,16.15353 20.154939,20.154939 0 0 0 15.93185,23.63732 c 165.72571,32.26008 290.84013,177.83992 290.84013,352.99034 0,40.85729 -6.80611,80.04851 -19.34249,116.59598 a 20.154939,20.154939 0 0 0 12.52533,25.60516 20.154939,20.154939 0 0 0 25.60516,-12.52533 c 13.95455,-40.6819 21.5222,-84.3361 21.5222,-129.67581 0,-194.36599 -139.10448,-356.6751 -323.44899,-392.5595 a 20.154939,20.154939 0 0 0 -6.30143,-0.22169 z M 347.90021,222.72077 a 20.154939,20.154939 0 0 0 -10.0428,2.82309 c -93.08924,55.28574 -155.45976,157.05599 -155.45976,273.11149 0,116.0555 62.37052,217.82936 155.45976,273.11511 a 20.154939,20.154939 0 0 0 27.62002,-7.03523 20.154939,20.154939 0 0 0 -7.03523,-27.62363 C 277.20326,688.86373 222.70734,600.28395 222.70734,498.65535 c 0,-101.6286 54.49592,-190.20426 135.73486,-238.45211 a 20.154939,20.154939 0 0 0 7.03523,-27.62364 20.154939,20.154939 0 0 0 -12.35325,-9.23664 20.154939,20.154939 0 0 0 -5.22397,-0.62219 z m 302.81253,0 a 20.154939,20.154939 0 0 0 -5.22397,0.62219 20.154939,20.154939 0 0 0 -12.35326,9.23664 20.154939,20.154939 0 0 0 7.03523,27.62364 c 81.23895,48.24785 135.73487,136.82351 135.73487,238.45211 0,101.62862 -54.49592,190.20838 -135.73487,238.45625 a 20.154939,20.154939 0 0 0 -7.03523,27.62363 20.154939,20.154939 0 0 0 27.62002,7.03523 C 753.84479,716.48471 816.2153,614.71087 816.2153,498.65535 c 0,-29.01386 -3.89968,-57.13317 -11.20139,-83.85845 -1.82541,-6.6813 -3.86189,-13.27656 -6.10505,-19.77553 -2.24313,-6.49898 -4.69058,-12.90208 -7.33599,-19.20297 -2.64543,-6.3009 -5.48871,-12.5004 -8.52093,-18.58749 -3.03222,-6.08712 -6.25525,-12.0607 -9.65884,-17.91829 -3.40357,-5.85759 -6.98715,-11.59747 -10.74663,-17.2098 -3.7595,-5.61233 -7.69522,-11.09982 -11.79514,-16.45119 -4.09994,-5.35139 -8.365,-10.56726 -12.78992,-15.64194 -13.27479,-15.22404 -27.9781,-29.16891 -43.89965,-41.61968 -5.30717,-4.15025 -10.75163,-8.13486 -16.322,-11.94553 -5.57035,-3.81067 -11.26614,-7.44527 -17.08423,-10.90062 a 20.154939,20.154939 0 0 0 -10.04279,-2.82309 z m -150.13399,51.86144 c -123.25795,0 -223.61168,100.35373 -223.61168,223.61167 0,123.25795 100.35373,223.61167 223.61168,223.61167 123.25793,0 223.61167,-100.35372 223.61167,-223.61167 0,-123.25794 -100.35374,-223.61167 -223.61167,-223.61167 z m 0,40.30968 c 101.47291,0 183.30199,81.82908 183.30199,183.30199 0,101.47291 -81.82908,183.30199 -183.30199,183.30199 -101.47291,0 -183.30199,-81.82908 -183.30199,-183.30199 0,-101.47291 81.82908,-183.30199 183.30199,-183.30199 z M 210.95818,728.35864 a 20.154939,20.154939 0 0 0 -11.45098,4.90203 20.154939,20.154939 0 0 0 -1.89652,28.43961 c 73.39716,83.89129 181.48492,136.91567 301.69424,136.91567 7.51309,0 14.97852,-0.20664 22.3914,-0.61547 14.82578,-0.81762 29.44362,-2.44322 43.8025,-4.83123 50.25605,-8.3581 97.38259,-26.07175 139.48864,-51.28214 6.01514,-3.60145 11.92753,-7.35658 17.73225,-11.25874 11.60948,-7.80427 22.78725,-16.19751 33.48891,-25.13955 16.05251,-13.41304 31.03168,-28.05892 44.79365,-43.78854 a 20.154939,20.154939 0 0 0 4.94233,-14.61151 20.154939,20.154939 0 0 0 -6.83885,-13.8281 20.154939,20.154939 0 0 0 -28.43961,1.90066 c -4.12766,4.71782 -8.37547,9.32473 -12.73979,13.82034 -8.72864,8.99118 -17.92323,17.52895 -27.54147,25.57312 -9.61822,8.04418 -19.66097,15.59392 -30.09274,22.61361 -5.21589,3.50985 -10.53047,6.88836 -15.93546,10.12754 -10.81002,6.47839 -21.9867,12.40492 -33.49615,17.74259 -34.52834,16.013 -72.03511,26.71803 -111.48932,31.06994 -13.1514,1.45064 -26.51968,2.19728 -40.06629,2.19728 -108.37274,0 -205.31552,-47.65925 -271.35811,-123.14442 a 20.154939,20.154939 0 0 0 -16.98863,-6.80269 z" /></g></g></svg>
